<svg enable-background="new 0 0 24 24" height="512" viewBox="0 0 24 24" width="512" xmlns="http://www.w3.org/2000/svg"><path clip-rule="evenodd" d="m20.463 3.488c-2.246-2.248-5.232-3.487-8.413-3.488-6.555 0-11.89 5.334-11.893 11.892-.001 2.096.547 4.142 1.588 5.946l-1.688 6.162 6.304-1.654c1.737.948 3.693 1.447 5.683 1.448h.005c6.554 0 11.89-5.335 11.893-11.893.002-3.177-1.234-6.166-3.479-8.413zm-8.413 18.297h-.004c-1.774 0-3.513-.477-5.031-1.378l-.361-.214-3.741.981.999-3.648-.235-.374c-.99-1.574-1.512-3.393-1.511-5.26.002-5.45 4.437-9.884 9.889-9.884 2.64 0 5.122 1.03 6.988 2.898 1.866 1.869 2.893 4.352 2.892 6.993-.003 5.452-4.437 9.886-9.885 9.886zm5.422-7.403c-.297-.149-1.758-.868-2.031-.967-.272-.099-.47-.149-.669.148s-.767.967-.941 1.166c-.173.198-.347.223-.644.074s-1.255-.462-2.39-1.475c-.883-.788-1.48-1.761-1.653-2.059s-.018-.458.13-.606c.134-.133.297-.347.446-.521.15-.172.199-.296.299-.495.099-.198.05-.372-.025-.521-.075-.148-.669-1.611-.916-2.206-.241-.58-.486-.501-.669-.51-.173-.009-.371-.01-.57-.01-.198 0-.52.074-.792.372s-1.04 1.017-1.04 2.479c0 1.463 1.065 2.876 1.213 3.074s2.095 3.2 5.076 4.487c.709.306 1.263.489 1.694.626.712.226 1.36.194 1.872.118.571-.085 1.758-.719 2.006-1.413s.248-1.29.173-1.413c-.074-.125-.272-.199-.569-.348z" fill-rule="evenodd"/></svg>