<svg xmlns="http://www.w3.org/2000/svg" xmlns:xlink="http://www.w3.org/1999/xlink" width="500" zoomAndPan="magnify" viewBox="0 0 375 374.999991" height="500" preserveAspectRatio="xMidYMid meet" version="1.0"><defs><clipPath id="475df85d09"><path d="M 98.238281 82 L 276.738281 82 L 276.738281 293 L 98.238281 293 Z M 98.238281 82 " clip-rule="nonzero"/></clipPath></defs><rect x="-37.5" width="450" fill="#ffffff" y="-37.499999" height="449.999989" fill-opacity="1"/><g clip-path="url(#475df85d09)"><path fill="#545454" d="M 187.378906 292.820312 C 184.605469 292.824219 181.894531 292.429688 179.238281 291.636719 C 176.582031 290.839844 174.097656 289.683594 171.78125 288.15625 L 133.988281 263.332031 C 131.246094 261.535156 128.621094 259.578125 126.121094 257.457031 C 123.621094 255.332031 121.257812 253.066406 119.039062 250.648438 C 116.820312 248.234375 114.757812 245.691406 112.855469 243.019531 C 110.953125 240.347656 109.222656 237.566406 107.664062 234.679688 C 106.105469 231.792969 104.734375 228.820312 103.542969 225.765625 C 102.355469 222.707031 101.359375 219.589844 100.558594 216.40625 C 99.757812 213.226562 99.15625 210.007812 98.757812 206.753906 C 98.355469 203.496094 98.160156 200.230469 98.164062 196.949219 L 98.164062 118.277344 C 98.164062 117.96875 98.222656 117.667969 98.34375 117.382812 C 98.460938 117.09375 98.628906 116.839844 98.851562 116.621094 C 99.070312 116.398438 99.324219 116.230469 99.613281 116.113281 C 99.898438 115.992188 100.199219 115.933594 100.507812 115.933594 L 110.863281 115.933594 C 111.550781 115.933594 112.238281 115.898438 112.925781 115.828125 C 113.613281 115.761719 114.292969 115.660156 114.96875 115.523438 C 115.644531 115.390625 116.3125 115.222656 116.972656 115.019531 C 117.628906 114.820312 118.277344 114.585938 118.914062 114.324219 C 119.550781 114.058594 120.171875 113.765625 120.78125 113.441406 C 121.390625 113.113281 121.980469 112.761719 122.550781 112.378906 C 123.125 111.996094 123.675781 111.585938 124.210938 111.148438 C 124.742188 110.710938 125.253906 110.246094 125.742188 109.757812 C 126.226562 109.273438 126.691406 108.761719 127.128906 108.230469 C 127.5625 107.695312 127.972656 107.144531 128.359375 106.570312 C 128.742188 106 129.09375 105.40625 129.417969 104.800781 C 129.746094 104.191406 130.039062 103.570312 130.304688 102.933594 C 130.566406 102.296875 130.800781 101.648438 131 100.988281 C 131.199219 100.332031 131.367188 99.664062 131.503906 98.988281 C 131.636719 98.3125 131.738281 97.628906 131.808594 96.945312 C 131.875 96.257812 131.910156 95.570312 131.910156 94.882812 L 131.910156 84.519531 C 131.910156 84.207031 131.972656 83.910156 132.089844 83.621094 C 132.210938 83.332031 132.378906 83.078125 132.597656 82.859375 C 132.820312 82.640625 133.074219 82.46875 133.359375 82.351562 C 133.648438 82.234375 133.945312 82.171875 134.257812 82.171875 L 240.496094 82.171875 C 240.808594 82.171875 241.105469 82.234375 241.394531 82.351562 C 241.683594 82.46875 241.933594 82.640625 242.15625 82.859375 C 242.375 83.078125 242.542969 83.332031 242.664062 83.621094 C 242.78125 83.910156 242.84375 84.207031 242.84375 84.519531 L 242.84375 94.871094 C 242.84375 95.5625 242.878906 96.25 242.945312 96.933594 C 243.015625 97.621094 243.117188 98.300781 243.25 98.976562 C 243.386719 99.652344 243.554688 100.320312 243.753906 100.980469 C 243.953125 101.640625 244.1875 102.289062 244.449219 102.925781 C 244.714844 103.5625 245.007812 104.183594 245.335938 104.789062 C 245.660156 105.398438 246.015625 105.988281 246.398438 106.5625 C 246.78125 107.132812 247.191406 107.6875 247.628906 108.21875 C 248.066406 108.753906 248.527344 109.261719 249.015625 109.75 C 249.5 110.238281 250.011719 110.699219 250.542969 111.136719 C 251.078125 111.574219 251.628906 111.984375 252.203125 112.367188 C 252.773438 112.75 253.367188 113.105469 253.972656 113.429688 C 254.582031 113.753906 255.203125 114.050781 255.839844 114.3125 C 256.476562 114.578125 257.125 114.8125 257.785156 115.011719 C 258.441406 115.210938 259.109375 115.378906 259.785156 115.515625 C 260.460938 115.648438 261.144531 115.75 261.828125 115.820312 C 262.515625 115.886719 263.203125 115.921875 263.890625 115.921875 L 274.246094 115.921875 C 274.554688 115.921875 274.855469 115.984375 275.144531 116.101562 C 275.429688 116.222656 275.683594 116.390625 275.902344 116.609375 C 276.125 116.832031 276.292969 117.085938 276.414062 117.371094 C 276.53125 117.660156 276.589844 117.957031 276.589844 118.269531 L 276.589844 196.949219 C 276.597656 200.230469 276.398438 203.496094 275.996094 206.753906 C 275.597656 210.007812 274.996094 213.226562 274.195312 216.40625 C 273.394531 219.589844 272.398438 222.707031 271.210938 225.765625 C 270.023438 228.820312 268.648438 231.792969 267.089844 234.679688 C 265.53125 237.566406 263.800781 240.347656 261.898438 243.019531 C 259.996094 245.691406 257.933594 248.234375 255.714844 250.648438 C 253.496094 253.066406 251.136719 255.332031 248.632812 257.457031 C 246.132812 259.578125 243.507812 261.535156 240.765625 263.332031 L 202.96875 288.152344 C 200.65625 289.675781 198.171875 290.835938 195.515625 291.632812 C 192.863281 292.425781 190.148438 292.824219 187.378906 292.820312 Z M 102.855469 120.644531 L 102.855469 196.949219 C 102.851562 200.035156 103.035156 203.109375 103.414062 206.171875 C 103.789062 209.238281 104.355469 212.265625 105.109375 215.257812 C 105.863281 218.25 106.800781 221.1875 107.917969 224.0625 C 109.035156 226.9375 110.328125 229.734375 111.792969 232.453125 C 113.261719 235.167969 114.886719 237.785156 116.679688 240.296875 C 118.46875 242.8125 120.410156 245.203125 122.5 247.476562 C 124.585938 249.75 126.808594 251.882812 129.160156 253.882812 C 131.515625 255.878906 133.984375 257.722656 136.566406 259.410156 L 174.359375 284.226562 C 175.324219 284.847656 176.328125 285.394531 177.375 285.871094 C 178.417969 286.347656 179.492188 286.75 180.59375 287.070312 C 181.695312 287.394531 182.8125 287.640625 183.949219 287.800781 C 185.085938 287.964844 186.230469 288.046875 187.378906 288.046875 C 188.523438 288.046875 189.667969 287.964844 190.804688 287.800781 C 191.941406 287.640625 193.058594 287.394531 194.160156 287.070312 C 195.261719 286.75 196.335938 286.347656 197.378906 285.871094 C 198.425781 285.394531 199.429688 284.847656 200.394531 284.226562 L 238.1875 259.410156 C 240.769531 257.71875 243.238281 255.875 245.59375 253.878906 C 247.945312 251.882812 250.167969 249.746094 252.253906 247.476562 C 254.34375 245.203125 256.285156 242.808594 258.074219 240.296875 C 259.867188 237.78125 261.492188 235.167969 262.960938 232.449219 C 264.425781 229.734375 265.71875 226.9375 266.835938 224.0625 C 267.953125 221.183594 268.890625 218.25 269.644531 215.257812 C 270.398438 212.265625 270.964844 209.234375 271.339844 206.171875 C 271.71875 203.109375 271.902344 200.035156 271.898438 196.949219 L 271.898438 120.625 L 263.890625 120.625 C 263.046875 120.625 262.207031 120.582031 261.367188 120.496094 C 260.53125 120.414062 259.699219 120.289062 258.871094 120.125 C 258.042969 119.960938 257.226562 119.753906 256.421875 119.507812 C 255.617188 119.265625 254.824219 118.980469 254.042969 118.65625 C 253.265625 118.332031 252.503906 117.972656 251.761719 117.574219 C 251.019531 117.179688 250.296875 116.746094 249.597656 116.277344 C 248.894531 115.808594 248.21875 115.308594 247.570312 114.773438 C 246.917969 114.238281 246.292969 113.671875 245.699219 113.074219 C 245.101562 112.480469 244.535156 111.855469 244.003906 111.203125 C 243.46875 110.554688 242.964844 109.878906 242.496094 109.175781 C 242.027344 108.476562 241.597656 107.753906 241.199219 107.011719 C 240.800781 106.269531 240.441406 105.507812 240.117188 104.726562 C 239.792969 103.949219 239.511719 103.15625 239.265625 102.351562 C 239.019531 101.546875 238.816406 100.730469 238.648438 99.902344 C 238.484375 99.074219 238.359375 98.242188 238.277344 97.40625 C 238.195312 96.566406 238.152344 95.726562 238.152344 94.882812 L 238.152344 86.863281 L 136.601562 86.863281 L 136.601562 94.871094 C 136.601562 95.714844 136.5625 96.558594 136.476562 97.394531 C 136.394531 98.234375 136.269531 99.066406 136.105469 99.894531 C 135.941406 100.722656 135.734375 101.539062 135.492188 102.34375 C 135.246094 103.152344 134.960938 103.941406 134.640625 104.722656 C 134.316406 105.5 133.957031 106.261719 133.558594 107.003906 C 133.160156 107.75 132.726562 108.472656 132.261719 109.171875 C 131.792969 109.871094 131.289062 110.550781 130.753906 111.199219 C 130.222656 111.851562 129.65625 112.476562 129.058594 113.074219 C 128.464844 113.667969 127.839844 114.234375 127.1875 114.769531 C 126.535156 115.304688 125.859375 115.804688 125.160156 116.273438 C 124.460938 116.742188 123.738281 117.175781 122.996094 117.574219 C 122.25 117.972656 121.492188 118.332031 120.710938 118.65625 C 119.933594 118.980469 119.140625 119.261719 118.335938 119.507812 C 117.527344 119.753906 116.710938 119.960938 115.882812 120.125 C 115.058594 120.289062 114.226562 120.414062 113.386719 120.496094 C 112.546875 120.582031 111.707031 120.625 110.863281 120.625 Z M 187.378906 282.457031 C 185.617188 282.457031 183.890625 282.207031 182.203125 281.703125 C 180.515625 281.199219 178.9375 280.460938 177.464844 279.496094 L 139.671875 254.675781 C 137.285156 253.113281 135.003906 251.410156 132.828125 249.566406 C 130.652344 247.71875 128.601562 245.746094 126.671875 243.648438 C 124.742188 241.546875 122.949219 239.335938 121.292969 237.011719 C 119.640625 234.6875 118.132812 232.269531 116.78125 229.761719 C 115.425781 227.25 114.230469 224.664062 113.195312 222.007812 C 112.164062 219.347656 111.296875 216.636719 110.601562 213.871094 C 109.90625 211.101562 109.382812 208.304688 109.035156 205.472656 C 108.683594 202.644531 108.511719 199.800781 108.519531 196.949219 L 108.519531 128.632812 C 108.519531 128.320312 108.578125 128.023438 108.695312 127.734375 C 108.816406 127.449219 108.984375 127.195312 109.203125 126.972656 C 109.425781 126.753906 109.679688 126.585938 109.964844 126.464844 C 110.253906 126.347656 110.550781 126.289062 110.863281 126.289062 C 111.890625 126.285156 112.917969 126.234375 113.941406 126.132812 C 114.964844 126.03125 115.980469 125.878906 116.988281 125.679688 C 117.996094 125.476562 118.992188 125.226562 119.976562 124.929688 C 120.960938 124.628906 121.925781 124.285156 122.875 123.890625 C 123.828125 123.496094 124.753906 123.054688 125.660156 122.570312 C 126.566406 122.085938 127.449219 121.558594 128.304688 120.988281 C 129.160156 120.414062 129.984375 119.804688 130.777344 119.152344 C 131.574219 118.5 132.332031 117.808594 133.0625 117.082031 C 133.789062 116.355469 134.476562 115.59375 135.128906 114.796875 C 135.78125 114.003906 136.394531 113.179688 136.964844 112.324219 C 137.539062 111.46875 138.066406 110.589844 138.550781 109.683594 C 139.035156 108.777344 139.476562 107.847656 139.871094 106.898438 C 140.261719 105.949219 140.609375 104.980469 140.910156 103.996094 C 141.207031 103.011719 141.457031 102.015625 141.660156 101.007812 C 141.859375 100 142.011719 98.984375 142.113281 97.960938 C 142.214844 96.9375 142.265625 95.914062 142.269531 94.882812 C 142.269531 94.574219 142.328125 94.273438 142.445312 93.988281 C 142.566406 93.699219 142.734375 93.445312 142.957031 93.226562 C 143.175781 93.007812 143.429688 92.835938 143.714844 92.71875 C 144.003906 92.597656 144.304688 92.539062 144.613281 92.539062 L 230.140625 92.539062 C 230.453125 92.539062 230.75 92.597656 231.039062 92.71875 C 231.324219 92.835938 231.578125 93.007812 231.800781 93.226562 C 232.019531 93.445312 232.1875 93.699219 232.308594 93.988281 C 232.425781 94.273438 232.484375 94.574219 232.484375 94.882812 C 232.488281 95.914062 232.539062 96.9375 232.640625 97.960938 C 232.742188 98.984375 232.894531 100 233.09375 101.007812 C 233.296875 102.015625 233.546875 103.011719 233.84375 103.996094 C 234.144531 104.980469 234.492188 105.949219 234.886719 106.898438 C 235.277344 107.847656 235.71875 108.777344 236.203125 109.683594 C 236.6875 110.589844 237.214844 111.46875 237.789062 112.324219 C 238.359375 113.179688 238.972656 114.003906 239.625 114.796875 C 240.277344 115.59375 240.964844 116.355469 241.695312 117.082031 C 242.421875 117.808594 243.179688 118.5 243.976562 119.152344 C 244.769531 119.804688 245.597656 120.414062 246.449219 120.988281 C 247.304688 121.558594 248.1875 122.085938 249.09375 122.570312 C 250 123.054688 250.929688 123.496094 251.878906 123.890625 C 252.828125 124.285156 253.792969 124.628906 254.777344 124.929688 C 255.761719 125.226562 256.757812 125.476562 257.765625 125.679688 C 258.773438 125.878906 259.789062 126.03125 260.8125 126.132812 C 261.835938 126.234375 262.863281 126.285156 263.890625 126.289062 C 264.203125 126.289062 264.5 126.347656 264.789062 126.464844 C 265.074219 126.585938 265.328125 126.753906 265.550781 126.972656 C 265.769531 127.195312 265.9375 127.449219 266.058594 127.734375 C 266.175781 128.023438 266.238281 128.320312 266.238281 128.632812 L 266.238281 196.949219 C 266.242188 199.800781 266.070312 202.644531 265.71875 205.472656 C 265.371094 208.304688 264.847656 211.101562 264.152344 213.871094 C 263.457031 216.636719 262.589844 219.347656 261.558594 222.007812 C 260.523438 224.664062 259.328125 227.25 257.976562 229.761719 C 256.621094 232.269531 255.117188 234.6875 253.460938 237.011719 C 251.804688 239.335938 250.011719 241.546875 248.082031 243.648438 C 246.152344 245.746094 244.101562 247.71875 241.925781 249.566406 C 239.75 251.410156 237.46875 253.113281 235.082031 254.675781 L 197.289062 279.496094 C 195.816406 280.460938 194.238281 281.195312 192.550781 281.703125 C 190.863281 282.207031 189.136719 282.457031 187.378906 282.457031 Z M 113.210938 130.902344 L 113.210938 196.949219 C 113.207031 199.605469 113.367188 202.253906 113.691406 204.894531 C 114.015625 207.535156 114.503906 210.140625 115.152344 212.71875 C 115.800781 215.296875 116.609375 217.828125 117.570312 220.304688 C 118.535156 222.78125 119.648438 225.191406 120.910156 227.53125 C 122.171875 229.871094 123.574219 232.125 125.117188 234.289062 C 126.660156 236.453125 128.332031 238.515625 130.128906 240.472656 C 131.929688 242.433594 133.84375 244.269531 135.871094 245.992188 C 137.898438 247.710938 140.023438 249.300781 142.246094 250.753906 L 180.042969 275.574219 C 181.132812 276.289062 182.300781 276.832031 183.550781 277.207031 C 184.796875 277.578125 186.074219 277.765625 187.378906 277.765625 C 188.679688 277.765625 189.957031 277.578125 191.203125 277.207031 C 192.453125 276.832031 193.621094 276.289062 194.710938 275.574219 L 232.507812 250.753906 C 234.730469 249.300781 236.859375 247.710938 238.886719 245.992188 C 240.914062 244.269531 242.824219 242.433594 244.625 240.472656 C 246.421875 238.515625 248.09375 236.453125 249.636719 234.289062 C 251.179688 232.125 252.582031 229.871094 253.84375 227.53125 C 255.105469 225.191406 256.21875 222.78125 257.183594 220.304688 C 258.148438 217.828125 258.953125 215.296875 259.601562 212.71875 C 260.25 210.140625 260.738281 207.535156 261.0625 204.894531 C 261.390625 202.253906 261.550781 199.605469 261.546875 196.949219 L 261.546875 130.902344 C 260.464844 130.832031 259.386719 130.710938 258.316406 130.542969 C 257.246094 130.375 256.1875 130.15625 255.136719 129.894531 C 254.082031 129.628906 253.046875 129.320312 252.023438 128.960938 C 251 128.605469 249.996094 128.203125 249.007812 127.753906 C 248.019531 127.304688 247.054688 126.816406 246.113281 126.28125 C 245.171875 125.746094 244.253906 125.167969 243.363281 124.554688 C 242.472656 123.9375 241.609375 123.28125 240.777344 122.585938 C 239.945312 121.890625 239.148438 121.160156 238.382812 120.394531 C 237.613281 119.628906 236.882812 118.828125 236.191406 117.996094 C 235.496094 117.164062 234.839844 116.304688 234.222656 115.414062 C 233.605469 114.519531 233.03125 113.605469 232.496094 112.660156 C 231.960938 111.71875 231.46875 110.753906 231.023438 109.765625 C 230.574219 108.78125 230.171875 107.773438 229.8125 106.753906 C 229.457031 105.730469 229.144531 104.691406 228.882812 103.640625 C 228.617188 102.589844 228.402344 101.527344 228.234375 100.457031 C 228.0625 99.386719 227.945312 98.3125 227.871094 97.230469 L 146.882812 97.230469 C 146.808594 98.3125 146.691406 99.386719 146.523438 100.457031 C 146.351562 101.527344 146.136719 102.589844 145.871094 103.640625 C 145.609375 104.691406 145.296875 105.730469 144.941406 106.753906 C 144.582031 107.773438 144.179688 108.78125 143.730469 109.765625 C 143.285156 110.753906 142.792969 111.71875 142.257812 112.660156 C 141.722656 113.605469 141.148438 114.519531 140.53125 115.414062 C 139.914062 116.304688 139.257812 117.164062 138.566406 117.996094 C 137.871094 118.828125 137.140625 119.628906 136.375 120.394531 C 135.605469 121.160156 134.808594 121.890625 133.976562 122.585938 C 133.144531 123.28125 132.28125 123.9375 131.390625 124.554688 C 130.5 125.167969 129.582031 125.746094 128.640625 126.28125 C 127.699219 126.816406 126.734375 127.304688 125.746094 127.753906 C 124.757812 128.203125 123.753906 128.605469 122.730469 128.960938 C 121.707031 129.320312 120.671875 129.628906 119.621094 129.894531 C 118.570312 130.15625 117.507812 130.375 116.4375 130.542969 C 115.367188 130.710938 114.289062 130.832031 113.210938 130.902344 Z M 233.796875 252.710938 Z M 233.796875 252.710938 " fill-opacity="1" fill-rule="nonzero"/></g></svg>