<svg xmlns="http://www.w3.org/2000/svg" xmlns:xlink="http://www.w3.org/1999/xlink" width="500" zoomAndPan="magnify" viewBox="0 0 375 374.999991" height="500" preserveAspectRatio="xMidYMid meet" version="1.0"><defs><clipPath id="9a96ed0ec8"><path d="M 83.21875 220 L 160 220 L 160 239 L 83.21875 239 Z M 83.21875 220 " clip-rule="nonzero"/></clipPath><clipPath id="ceade6607e"><path d="M 83.21875 216 L 163 216 L 163 243 L 83.21875 243 Z M 83.21875 216 " clip-rule="nonzero"/></clipPath><clipPath id="65f4e6b244"><path d="M 211 216 L 291.71875 216 L 291.71875 243 L 211 243 Z M 211 216 " clip-rule="nonzero"/></clipPath><clipPath id="3383111bf9"><path d="M 129 127 L 246 127 L 246 285.042969 L 129 285.042969 Z M 129 127 " clip-rule="nonzero"/></clipPath><clipPath id="ec9f488eba"><path d="M 112 90.042969 L 263 90.042969 L 263 133 L 112 133 Z M 112 90.042969 " clip-rule="nonzero"/></clipPath><clipPath id="28275c041a"><path d="M 108 90.042969 L 266 90.042969 L 266 136 L 108 136 Z M 108 90.042969 " clip-rule="nonzero"/></clipPath></defs><rect x="-37.5" width="450" fill="#ffffff" y="-37.499999" height="449.999989" fill-opacity="1"/><g clip-path="url(#9a96ed0ec8)"><path fill="#545454" d="M 83.5625 220.335938 L 159.03125 220.335938 C 152.226562 227.097656 144.90625 233.980469 135.441406 236.792969 C 123.796875 240.246094 110.78125 239.691406 99.972656 233.882812 C 93.691406 230.511719 87.394531 226.507812 83.566406 220.335938 Z M 83.5625 220.335938 " fill-opacity="1" fill-rule="nonzero"/></g><g clip-path="url(#ceade6607e)"><path stroke-linecap="butt" transform="matrix(0.614265, 0, 0, 0.614265, 82.948578, 90.350084)" fill="none" stroke-linejoin="miter" d="M 0.999441 211.612043 L 123.859707 211.612043 C 112.781933 222.619865 100.864742 233.824823 85.456335 238.403466 C 66.499479 244.025023 45.310535 243.122013 27.714554 233.665842 C 17.488917 228.17783 7.237843 221.659622 1.005801 211.612043 Z M 0.999441 211.612043 " stroke="#000000" stroke-width="1" stroke-opacity="1" stroke-miterlimit="4"/></g><path fill="#545454" d="M 215.453125 220.335938 L 290.921875 220.335938 C 284.117188 227.097656 276.796875 233.980469 267.328125 236.792969 C 255.683594 240.246094 242.667969 239.691406 231.863281 233.882812 C 225.582031 230.511719 219.285156 226.507812 215.453125 220.335938 Z M 215.453125 220.335938 " fill-opacity="1" fill-rule="nonzero"/><g clip-path="url(#65f4e6b244)"><path stroke-linecap="butt" transform="matrix(0.614265, 0, 0, 0.614265, 82.948578, 90.350084)" fill="none" stroke-linejoin="miter" d="M 215.712381 211.612043 L 338.572646 211.612043 C 327.494873 222.619865 315.577682 233.824823 300.162915 238.403466 C 281.20606 244.025023 260.017116 243.122013 242.427494 233.665842 C 232.201857 228.17783 221.950783 221.659622 215.712381 211.612043 Z M 215.712381 211.612043 " stroke="#000000" stroke-width="1" stroke-opacity="1" stroke-miterlimit="4"/></g><path fill="#545454" d="M 132.945312 284.613281 L 241.542969 284.613281 C 241.542969 284.613281 204.363281 277.96875 193.9375 264.210938 C 190.550781 259.742188 194.390625 253.089844 194.199219 247.535156 L 190.207031 130.953125 L 184.722656 130.953125 L 180.730469 247.535156 C 180.539062 253.089844 184.195312 259.757812 180.773438 264.210938 C 170.207031 277.945312 132.949219 284.613281 132.949219 284.613281 Z M 132.945312 284.613281 " fill-opacity="1" fill-rule="nonzero"/><g clip-path="url(#3383111bf9)"><path stroke-linecap="butt" transform="matrix(0.614265, 0, 0, 0.614265, 82.948578, 90.350084)" fill="none" stroke-linejoin="miter" d="M 81.392789 316.253123 L 258.185658 316.253123 C 258.185658 316.253123 197.658536 305.436078 180.685759 283.038881 C 175.172309 275.763925 181.423429 264.934161 181.111827 255.891341 L 174.612697 66.100211 L 165.684342 66.100211 L 159.185213 255.891341 C 158.87361 264.934161 164.825847 275.789362 159.255164 283.038881 C 142.053455 305.397923 81.399148 316.253123 81.399148 316.253123 Z M 81.392789 316.253123 " stroke="#000000" stroke-width="1" stroke-opacity="1" stroke-miterlimit="4"/></g><g clip-path="url(#ec9f488eba)"><path fill="#545454" d="M 261.246094 132.140625 L 113.230469 132.140625 L 112.355469 123.585938 C 112.304688 123.085938 112.421875 122.429688 112.847656 122.160156 C 113.28125 121.882812 113.871094 122.351562 114.382812 122.324219 C 132.796875 121.710938 149.992188 109.480469 168.625 112.617188 C 173.070312 113.363281 176.898438 114.992188 180.144531 118.101562 C 180.542969 118.503906 181.351562 119.308594 181.351562 119.308594 C 183.03125 120.992188 183.691406 118.621094 184.421875 116.457031 C 185.847656 111.757812 186.929688 90.351562 187.238281 90.351562 C 187.546875 90.351562 188.628906 111.757812 190.054688 116.457031 C 190.785156 118.621094 191.445312 120.992188 193.125 119.308594 C 193.125 119.308594 193.933594 118.503906 194.332031 118.101562 C 197.367188 114.71875 201.5 113.1875 205.851562 112.617188 C 224.238281 110.199219 241.972656 119.816406 260.09375 122.324219 C 260.605469 122.351562 261.195312 121.882812 261.628906 122.160156 C 262.054688 122.429688 262.171875 123.085938 262.121094 123.585938 Z M 261.246094 132.140625 " fill-opacity="1" fill-rule="nonzero"/></g><g clip-path="url(#28275c041a)"><path stroke-linecap="butt" transform="matrix(0.614265, 0, 0, 0.614265, 82.948578, 90.350084)" fill="none" stroke-linejoin="miter" d="M 290.261599 68.033416 L 49.29777 68.033416 L 47.873303 54.106709 C 47.790633 53.292728 47.98141 52.224378 48.674566 51.785591 C 49.38044 51.334086 50.340683 52.097194 51.173742 52.052679 C 81.151138 51.05428 109.144455 31.143541 139.477968 36.25 C 146.714768 37.464612 152.946811 40.11641 158.231328 45.178355 C 158.87997 45.833355 160.19633 47.143356 160.19633 47.143356 C 162.930797 49.884183 164.005507 46.024132 165.194682 42.50112 C 167.5158 34.85097 169.277306 0.00240618 169.779685 0.00240618 C 170.282064 0.00240618 172.043569 34.85097 174.364687 42.50112 C 175.553863 46.024132 176.628572 49.884183 179.36304 47.143356 C 179.36304 47.143356 180.6794 45.833355 181.328041 45.178355 C 186.26916 39.671264 192.997222 37.178447 200.081401 36.25 C 230.014283 32.313638 258.885173 47.970055 288.385627 52.052679 C 289.218686 52.097194 290.178929 51.334086 290.884803 51.785591 C 291.577959 52.224378 291.768736 53.292728 291.686066 54.106709 Z M 290.261599 68.033416 " stroke="#000000" stroke-width="1" stroke-opacity="1" stroke-miterlimit="4"/></g><path stroke-linecap="butt" transform="matrix(0.614265, 0, 0, 0.614265, 82.948578, 90.350084)" fill="none" stroke-linejoin="miter" d="M 67.930305 59.251324 L 8.929397 212.750345 " stroke="#000000" stroke-width="1" stroke-opacity="1" stroke-miterlimit="4"/><path stroke-linecap="butt" transform="matrix(0.614265, 0, 0, 0.614265, 82.948578, 90.350084)" fill="none" stroke-linejoin="miter" d="M 60.928796 57.750546 L 116.43213 212.750345 " stroke="#000000" stroke-width="1" stroke-opacity="1" stroke-miterlimit="4"/><path stroke-linecap="butt" transform="matrix(0.614265, 0, 0, 0.614265, 82.948578, 90.350084)" fill="none" stroke-linejoin="miter" d="M 275.177513 59.747344 L 330.680846 214.747142 " stroke="#000000" stroke-width="1" stroke-opacity="1" stroke-miterlimit="4"/><path stroke-linecap="butt" transform="matrix(0.614265, 0, 0, 0.614265, 82.948578, 90.350084)" fill="none" stroke-linejoin="miter" d="M 280.430234 64.001667 L 221.429326 217.500687 " stroke="#000000" stroke-width="1" stroke-opacity="1" stroke-miterlimit="4"/></svg>