<svg xmlns="http://www.w3.org/2000/svg" xmlns:xlink="http://www.w3.org/1999/xlink" width="500" zoomAndPan="magnify" viewBox="0 0 375 374.999991" height="500" preserveAspectRatio="xMidYMid meet" version="1.0"><defs><clipPath id="066e65d882"><path d="M 72.925781 112.921875 L 304 112.921875 L 304 230 L 72.925781 230 Z M 72.925781 112.921875 " clip-rule="nonzero"/></clipPath><clipPath id="389eae20fe"><path d="M 129 115.195312 L 312.175781 115.195312 L 312.175781 268.8125 L 129 268.8125 Z M 129 115.195312 " clip-rule="nonzero"/></clipPath><clipPath id="80b4637c62"><path d="M 112.078125 120.039062 L 312.175781 120.039062 L 312.175781 268.8125 L 112.078125 268.8125 Z M 112.078125 120.039062 " clip-rule="nonzero"/></clipPath><clipPath id="c3b53fc508"><path d="M 98.542969 138.4375 L 312.175781 138.4375 L 312.175781 268.8125 L 98.542969 268.8125 Z M 98.542969 138.4375 " clip-rule="nonzero"/></clipPath><clipPath id="2bd81c6e10"><path d="M 90.328125 150.058594 L 312.175781 150.058594 L 312.175781 268.8125 L 90.328125 268.8125 Z M 90.328125 150.058594 " clip-rule="nonzero"/></clipPath><clipPath id="3fb66b8f9f"><path d="M 72.925781 128 L 291.875 128 L 291.875 268.8125 L 72.925781 268.8125 Z M 72.925781 128 " clip-rule="nonzero"/></clipPath><clipPath id="be42eb03e9"><path d="M 72.925781 115.195312 L 273.511719 115.195312 L 273.511719 268.8125 L 72.925781 268.8125 Z M 72.925781 115.195312 " clip-rule="nonzero"/></clipPath><clipPath id="ab0937657d"><path d="M 72.925781 115.195312 L 255.144531 115.195312 L 255.144531 268.8125 L 72.925781 268.8125 Z M 72.925781 115.195312 " clip-rule="nonzero"/></clipPath><clipPath id="b6b49c5007"><path d="M 72.925781 115.195312 L 225.175781 115.195312 L 225.175781 268.8125 L 72.925781 268.8125 Z M 72.925781 115.195312 " clip-rule="nonzero"/></clipPath><clipPath id="c379fc56e5"><path d="M 72.925781 115.195312 L 193.761719 115.195312 L 193.761719 268.8125 L 72.925781 268.8125 Z M 72.925781 115.195312 " clip-rule="nonzero"/></clipPath><clipPath id="7088b81d9e"><path d="M 184 115.195312 L 312.175781 115.195312 L 312.175781 268.8125 L 184 268.8125 Z M 184 115.195312 " clip-rule="nonzero"/></clipPath><clipPath id="4c497ad71a"><path d="M 72.925781 115.195312 L 312.175781 115.195312 L 312.175781 268.8125 L 72.925781 268.8125 Z M 72.925781 115.195312 " clip-rule="nonzero"/></clipPath></defs><rect x="-37.5" width="450" fill="#ffffff" y="-37.499999" height="449.999989" fill-opacity="1"/><g clip-path="url(#066e65d882)"><path stroke-linecap="round" transform="matrix(0.0483333, 0, 0, -0.0484183, 72.92658, 268.813665)" fill="none" stroke-linejoin="miter" d="M 525.953313 2852.282131 C 879.859567 2734.332215 1478.808927 2777.817171 1887.429621 2944.01199 C 2296.050315 3110.045454 2423.986738 3144.736606 2784.924242 3053.087424 " stroke="#474747" stroke-width="140" stroke-opacity="1" stroke-miterlimit="10"/></g><g clip-path="url(#389eae20fe)"><path stroke-linecap="round" transform="matrix(0.0483333, 0, 0, -0.0484183, 72.92658, 268.813665)" fill="none" stroke-linejoin="miter" d="M 4278.86326 1312.801773 C 4365.339563 1025.026569 4098.960223 872.304825 3941.363223 964.680101 C 3783.685404 1057.055376 3145.377144 1427.201896 3145.377144 1427.201896 " stroke="#474747" stroke-width="140" stroke-opacity="1" stroke-miterlimit="10"/></g><g clip-path="url(#80b4637c62)"><path stroke-linecap="round" transform="matrix(0.0483333, 0, 0, -0.0484183, 72.92658, 268.813665)" fill="none" stroke-linejoin="miter" d="M 3721.77807 1092.553299 L 3869.838431 1006.309482 C 4006.099222 807.763148 3751.276995 572.508734 3515.366409 664.561301 L 2790.824304 1074.239598 " stroke="#474747" stroke-width="140" stroke-opacity="1" stroke-miterlimit="10"/></g><g clip-path="url(#c3b53fc508)"><path stroke-linecap="round" transform="matrix(0.0483333, 0, 0, -0.0484183, 72.92658, 268.813665)" fill="none" stroke-linejoin="miter" d="M 2511.837204 711.676725 L 2995.619585 463.756007 L 2995.619585 463.67533 L 3191.928874 363.151668 C 3434.304978 301.756397 3619.29961 559.681075 3464.531274 693.20167 C 3464.450455 693.363024 3464.450455 693.363024 3464.288817 693.524379 " stroke="#474747" stroke-width="140" stroke-opacity="1" stroke-miterlimit="10"/></g><g clip-path="url(#2bd81c6e10)"><path stroke-linecap="round" transform="matrix(0.0483333, 0, 0, -0.0484183, 72.92658, 268.813665)" fill="none" stroke-linejoin="miter" d="M 2344.622746 350.888749 L 2737.160505 149.922101 C 2967.413763 91.592561 3143.114213 336.770257 2995.862042 463.594653 L 2995.700404 463.67533 " stroke="#474747" stroke-width="140" stroke-opacity="1" stroke-miterlimit="10"/></g><g clip-path="url(#3fb66b8f9f)"><path stroke-linecap="round" transform="matrix(0.0483333, 0, 0, -0.0484183, 72.92658, 268.813665)" fill="none" stroke-linejoin="miter" d="M 1971.56236 99.337562 L 1809.116222 225.597218 C 1748.340353 272.873997 1737.187335 361.296095 1784.466435 422.207303 L 2134.089318 871.982116 C 2181.368418 932.812647 2269.865195 943.86541 2330.641064 896.588631 L 2493.087202 770.328975 C 2553.94389 723.052196 2565.016089 634.549421 2517.736989 573.71889 L 2168.194925 123.944076 C 2120.915825 63.113546 2032.419048 52.060783 1971.56236 99.337562 Z M 1971.56236 99.337562 " stroke="#474747" stroke-width="140" stroke-opacity="1" stroke-miterlimit="10"/></g><g clip-path="url(#be42eb03e9)"><path stroke-linecap="round" transform="matrix(0.0483333, 0, 0, -0.0484183, 72.92658, 268.813665)" fill="none" stroke-linejoin="miter" d="M 1486.810152 262.78936 L 1324.364013 389.049016 C 1263.588145 436.325795 1252.435126 524.82857 1299.795045 585.6591 L 1751.977207 1167.421644 C 1799.256307 1228.252175 1887.672265 1239.304937 1948.528953 1192.028159 L 2110.975091 1065.768503 C 2171.831779 1018.491724 2182.903978 929.988949 2135.624878 869.158418 L 1683.442717 287.395874 C 1636.163617 226.64602 1547.66684 215.512581 1486.810152 262.78936 Z M 1486.810152 262.78936 " stroke="#474747" stroke-width="140" stroke-opacity="1" stroke-miterlimit="10"/></g><g clip-path="url(#ab0937657d)"><path stroke-linecap="round" transform="matrix(0.0483333, 0, 0, -0.0484183, 72.92658, 268.813665)" fill="none" stroke-linejoin="miter" d="M 1000.522383 429.871627 L 838.157064 556.131283 C 777.300376 603.327385 766.147357 691.83016 813.507276 752.660691 L 1375.03751 1475.043414 C 1422.235791 1535.954622 1510.732568 1547.007384 1571.589256 1499.730605 L 1734.035395 1373.470949 C 1794.811263 1326.194171 1805.964282 1237.691396 1758.604363 1176.860865 L 1197.154948 454.478141 C 1149.875848 393.64761 1061.379071 382.514171 1000.522383 429.871627 Z M 1000.522383 429.871627 " stroke="#474747" stroke-width="140" stroke-opacity="1" stroke-miterlimit="10"/></g><g clip-path="url(#b6b49c5007)"><path stroke-linecap="round" transform="matrix(0.0483333, 0, 0, -0.0484183, 72.92658, 268.813665)" fill="none" stroke-linejoin="miter" d="M 612.429668 727.650791 L 449.98353 853.910447 C 389.126842 901.187225 378.054642 989.69 425.333742 1050.520531 L 756.368261 1476.334247 C 803.647361 1537.164778 892.144138 1548.298218 952.920007 1501.021439 L 1115.366146 1374.761783 C 1176.222833 1327.485004 1187.295033 1238.982229 1140.015933 1178.151698 L 809.062233 752.337982 C 761.702314 691.426774 673.286356 680.374012 612.429668 727.650791 Z M 612.429668 727.650791 " stroke="#474747" stroke-width="140" stroke-opacity="1" stroke-miterlimit="10"/></g><g clip-path="url(#c379fc56e5)"><path stroke-linecap="round" transform="matrix(0.0483333, 0, 0, -0.0484183, 72.92658, 268.813665)" fill="none" stroke-linejoin="miter" d="M 514.961985 1165.727425 C 375.630073 1260.684368 239.207644 1382.506784 69.972712 1417.35929 " stroke="#474747" stroke-width="140" stroke-opacity="1" stroke-miterlimit="10"/></g><g clip-path="url(#7088b81d9e)"><path stroke-linecap="round" transform="matrix(0.0483333, 0, 0, -0.0484183, 72.92658, 268.813665)" fill="none" stroke-linejoin="miter" d="M 4278.86326 1312.801773 C 4554.455963 1276.819787 4655.5605 1362.256833 4879.994792 1457.37513 " stroke="#474747" stroke-width="140" stroke-opacity="1" stroke-miterlimit="10"/></g><g clip-path="url(#4c497ad71a)"><path stroke-linecap="round" transform="matrix(0.0483333, 0, 0, -0.0484183, 72.92658, 268.813665)" fill="none" stroke-linejoin="miter" d="M 4471.293238 2935.218186 C 4013.938662 2737.559299 3301.842679 3157.241556 2829.940687 3065.511697 C 2742.2521 3048.569507 2454.051638 2922.551882 2296.292999 2764.828158 L 1670.026767 2132.965137 C 1634.30478 2096.902475 1632.930858 2038.41158 1668.410387 2002.106886 C 1740.581732 1928.206666 1887.187351 1844.625194 2126.411515 1990.005322 C 2367.656154 2136.676283 2509.00854 2231.875258 2576.654022 2279.152036 C 2607.203594 2300.531467 2647.451443 2301.8223 2679.374938 2282.540474 L 4278.86326 1312.801773 " stroke="#474747" stroke-width="140" stroke-opacity="1" stroke-miterlimit="10"/></g></svg>