<svg enable-background="new 0 0 24 24" height="512" viewBox="0 0 24 24" width="512" xmlns="http://www.w3.org/2000/svg"><path d="m12 2.162c3.204 0 3.584.012 4.849.07 1.308.06 2.655.358 3.608 1.311.962.962 1.251 2.296 1.311 3.608.058 1.265.07 1.645.07 4.849s-.012 3.584-.07 4.849c-.059 1.301-.364 2.661-1.311 3.608-.962.962-2.295 1.251-3.608 1.311-1.265.058-1.645.07-4.849.07s-3.584-.012-4.849-.07c-1.291-.059-2.669-.371-3.608-1.311-.957-.957-1.251-2.304-1.311-3.608-.058-1.265-.07-1.645-.07-4.849s.012-3.584.07-4.849c.059-1.296.367-2.664 1.311-3.608.96-.96 2.299-1.251 3.608-1.311 1.265-.058 1.645-.07 4.849-.07m0-2.162c-3.259 0-3.668.014-4.948.072-1.855.085-3.697.601-5.038 1.942-1.346 1.346-1.857 3.184-1.942 5.038-.058 1.28-.072 1.689-.072 4.948s.014 3.668.072 4.948c.085 1.853.603 3.7 1.942 5.038 1.345 1.345 3.186 1.857 5.038 1.942 1.28.058 1.689.072 4.948.072s3.668-.014 4.948-.072c1.854-.085 3.698-.602 5.038-1.942 1.347-1.347 1.857-3.184 1.942-5.038.058-1.28.072-1.689.072-4.948s-.014-3.668-.072-4.948c-.085-1.855-.602-3.698-1.942-5.038-1.343-1.343-3.189-1.858-5.038-1.942-1.28-.058-1.689-.072-4.948-.072z"/><path d="m12 5.838c-3.403 0-6.162 2.759-6.162 6.162s2.759 6.162 6.162 6.162 6.162-2.759 6.162-6.162-2.759-6.162-6.162-6.162zm0 10.162c-2.209 0-4-1.791-4-4s1.791-4 4-4 4 1.791 4 4-1.791 4-4 4z"/><circle cx="18.406" cy="5.594" r="1.44"/></svg>