<svg enable-background="new 0 0 24 24" height="512" viewBox="0 0 24 24" width="512" xmlns="http://www.w3.org/2000/svg"><path d="m23.002 21.584h.227l-.435-.658c.266 0 .407-.169.409-.376 0-.008 0-.017-.001-.025 0-.282-.17-.417-.519-.417h-.564v1.476h.212v-.643h.261zm-.425-.81h-.246v-.499h.312c.161 0 .345.026.345.237 0 .242-.186.262-.412.262"/><path d="m17.291 19.073h-3.007v-4.709c0-1.123-.02-2.568-1.564-2.568-1.566 0-1.806 1.223-1.806 2.487v4.79h-3.006v-9.684h2.887v1.323h.04c.589-1.006 1.683-1.607 2.848-1.564 3.048 0 3.609 2.005 3.609 4.612zm-12.776-11.008c-.964 0-1.745-.781-1.745-1.745s.781-1.745 1.745-1.745 1.745.781 1.745 1.745-.781 1.745-1.745 1.745zm1.503 11.008h-3.01v-9.684h3.01zm12.772-17.29h-17.293c-.817-.009-1.487.646-1.497 1.463v17.364c.01.818.68 1.473 1.497 1.464h17.293c.819.01 1.492-.645 1.503-1.464v-17.365c-.012-.819-.685-1.474-1.503-1.463"/><path d="m22.603 19.451c-.764.007-1.378.633-1.37 1.397.007.764.633 1.378 1.397 1.37.764-.007 1.378-.633 1.37-1.397-.007-.754-.617-1.363-1.37-1.37zm.032 2.608c-.67.011-1.254-.522-1.265-1.192s.523-1.222 1.193-1.233 1.222.523 1.233 1.193v.02c.014.655-.506 1.198-1.161 1.212h-.031"/></svg>